<svg width="206" height="55" viewBox="0 0 206 55" fill="none" xmlns="http://www.w3.org/2000/svg">
<path d="M19.6316 14.1289V18.2722H12.9193V39.7222H7.86708V18.2722H1.15479V14.1289H19.6316ZM48.0496 14.1289V32.0955C48.0496 34.5889 47.3398 36.5322 45.9204 37.9255C44.5009 39.2944 42.6003 39.9789 40.2185 39.9789C37.8127 39.9789 35.864 39.27 34.3724 37.8522C32.9048 36.4344 32.171 34.4544 32.171 31.9122H37.2233C37.2473 33.0122 37.5 33.8678 37.9811 34.4789C38.4863 35.09 39.2081 35.3955 40.1462 35.3955C41.0606 35.3955 41.7583 35.1022 42.2394 34.5155C42.7206 33.9289 42.9612 33.1222 42.9612 32.0955V14.1289H48.0496Z" fill="#FFB015"/>
<path d="M25.8802 16.9889C24.99 16.9889 24.2442 16.7078 23.6428 16.1456C23.0654 15.5589 22.7767 14.8378 22.7767 13.9822C22.7767 13.1267 23.0654 12.4178 23.6428 11.8556C24.2442 11.2689 24.99 10.9756 25.8802 10.9756C26.7704 10.9756 27.5041 11.2689 28.0815 11.8556C28.683 12.4178 28.9837 13.1267 28.9837 13.9822C28.9837 14.8378 28.683 15.5589 28.0815 16.1456C27.5041 16.7078 26.7704 16.9889 25.8802 16.9889ZM28.3702 19.4089V39.7222H23.318V19.4089H28.3702ZM52.6438 29.4922C52.6438 27.4389 53.0408 25.6178 53.8347 24.0289C54.6528 22.44 55.7475 21.2178 57.1188 20.3622C58.5142 19.5067 60.066 19.0789 61.7741 19.0789C63.2657 19.0789 64.5649 19.3844 65.6716 19.9956C66.8023 20.6067 67.7045 21.3767 68.3782 22.3056V19.4089H73.4665V39.7222H68.3782V36.7522C67.7286 37.7056 66.8264 38.5 65.6716 39.1356C64.5408 39.7467 63.2297 40.0522 61.738 40.0522C60.054 40.0522 58.5142 39.6122 57.1188 38.7322C55.7475 37.8522 54.6528 36.6178 53.8347 35.0289C53.0408 33.4156 52.6438 31.57 52.6438 29.4922ZM68.3782 29.5656C68.3782 28.3189 68.1376 27.2556 67.6564 26.3756C67.1752 25.4711 66.5257 24.7867 65.7077 24.3222C64.8897 23.8333 64.0116 23.5889 63.0733 23.5889C62.135 23.5889 61.2689 23.8211 60.475 24.2856C59.681 24.75 59.0315 25.4344 58.5262 26.3389C58.0451 27.2189 57.8045 28.27 57.8045 29.4922C57.8045 30.7144 58.0451 31.79 58.5262 32.7189C59.0315 33.6233 59.681 34.32 60.475 34.8089C61.293 35.2978 62.1591 35.5422 63.0733 35.5422C64.0116 35.5422 64.8897 35.31 65.7077 34.8456C66.5257 34.3567 67.1752 33.6722 67.6564 32.7922C68.1376 31.8878 68.3782 30.8122 68.3782 29.5656ZM83.4531 22.5622C84.1027 21.4867 84.9448 20.6433 85.9793 20.0322C87.0378 19.4211 88.2408 19.1156 89.588 19.1156V24.5056H88.2528C86.6649 24.5056 85.462 24.8844 84.644 25.6422C83.8501 26.4 83.4531 27.72 83.4531 29.6022V39.7222H78.4009V19.4089H83.4531V22.5622ZM91.6918 29.4922C91.6918 27.4389 92.0888 25.6178 92.8827 24.0289C93.7007 22.44 94.7953 21.2178 96.1666 20.3622C97.562 19.5067 99.1138 19.0789 100.822 19.0789C102.314 19.0789 103.613 19.3844 104.719 19.9956C105.85 20.6067 106.752 21.3767 107.426 22.3056V19.4089H112.514V39.7222H107.426V36.7522C106.776 37.7056 105.874 38.5 104.719 39.1356C103.589 39.7467 102.277 40.0522 100.786 40.0522C99.1018 40.0522 97.562 39.6122 96.1666 38.7322C94.7953 37.8522 93.7007 36.6178 92.8827 35.0289C92.0888 33.4156 91.6918 31.57 91.6918 29.4922ZM107.426 29.5656C107.426 28.3189 107.185 27.2556 106.704 26.3756C106.223 25.4711 105.573 24.7867 104.756 24.3222C103.938 23.8333 103.059 23.5889 102.121 23.5889C101.183 23.5889 100.317 23.8211 99.5228 24.2856C98.7289 24.75 98.0793 25.4344 97.5741 26.3389C97.0929 27.2189 96.8523 28.27 96.8523 29.4922C96.8523 30.7144 97.0929 31.79 97.5741 32.7189C98.0793 33.6233 98.7289 34.32 99.5228 34.8089C100.341 35.2978 101.207 35.5422 102.121 35.5422C103.059 35.5422 103.938 35.31 104.756 34.8456C105.573 34.3567 106.223 33.6722 106.704 32.7922C107.185 31.8878 107.426 30.8122 107.426 29.5656Z" fill="black"/>
<path d="M124.637 39.9254C123.247 39.9254 121.99 39.6836 120.866 39.1997C119.762 38.7159 118.886 38.0192 118.238 37.1097C117.59 36.2002 117.257 35.1262 117.238 33.8876H121.523C121.581 34.7198 121.866 35.3777 122.381 35.8615C122.914 36.3454 123.638 36.5872 124.552 36.5872C125.485 36.5872 126.218 36.3646 126.752 35.9196C127.285 35.4551 127.552 34.8552 127.552 34.1199C127.552 33.5199 127.371 33.0264 127.009 32.6395C126.647 32.2525 126.19 31.9524 125.637 31.7396C125.104 31.5074 124.361 31.2557 123.409 30.9849C122.114 30.5979 121.057 30.2205 120.238 29.8528C119.438 29.4658 118.743 28.8949 118.152 28.1401C117.581 27.366 117.295 26.3404 117.295 25.0632C117.295 23.8634 117.59 22.8184 118.181 21.9282C118.771 21.038 119.6 20.3607 120.666 19.8963C121.733 19.4124 122.952 19.1706 124.323 19.1706C126.38 19.1706 128.047 19.6834 129.323 20.709C130.618 21.7154 131.332 23.128 131.466 24.9471H127.066C127.028 24.2504 126.733 23.6795 126.18 23.2345C125.647 22.77 124.933 22.5378 124.038 22.5378C123.257 22.5378 122.628 22.741 122.152 23.1474C121.695 23.5538 121.466 24.1439 121.466 24.9181C121.466 25.46 121.638 25.9146 121.981 26.2824C122.342 26.6307 122.78 26.921 123.295 27.1532C123.828 27.366 124.571 27.6176 125.523 27.9079C126.818 28.2949 127.875 28.682 128.694 29.069C129.513 29.456 130.218 30.0366 130.808 30.8107C131.399 31.5848 131.694 32.6008 131.694 33.8586C131.694 34.9423 131.418 35.9486 130.866 36.8775C130.313 37.8064 129.504 38.5515 128.437 39.1126C127.371 39.6545 126.104 39.9254 124.637 39.9254ZM148.732 19.4608V22.741H143.418V39.7222H139.419V22.741H134.105V19.4608H148.732ZM160.907 39.9254C159.041 39.9254 157.327 39.4804 155.765 38.5901C154.202 37.6999 152.965 36.4711 152.051 34.9036C151.136 33.3167 150.679 31.5268 150.679 29.5335C150.679 27.5596 151.136 25.7889 152.051 24.2214C152.965 22.6345 154.202 21.3961 155.765 20.5058C157.327 19.6156 159.041 19.1706 160.907 19.1706C162.793 19.1706 164.507 19.6156 166.05 20.5058C167.612 21.3961 168.84 22.6345 169.735 24.2214C170.649 25.7889 171.106 27.5596 171.106 29.5335C171.106 31.5268 170.649 33.3167 169.735 34.9036C168.84 36.4711 167.612 37.6999 166.05 38.5901C164.487 39.4804 162.773 39.9254 160.907 39.9254ZM160.907 36.297C162.107 36.297 163.164 36.0261 164.078 35.4842C164.992 34.923 165.707 34.1295 166.221 33.1039C166.735 32.0783 166.992 30.8882 166.992 29.5335C166.992 28.1788 166.735 26.9984 166.221 25.9921C165.707 24.9665 164.992 24.1827 164.078 23.6408C163.164 23.0989 162.107 22.8281 160.907 22.8281C159.707 22.8281 158.641 23.0989 157.707 23.6408C156.793 24.1827 156.079 24.9665 155.565 25.9921C155.05 26.9984 154.793 28.1788 154.793 29.5335C154.793 30.8882 155.05 32.0783 155.565 33.1039C156.079 34.1295 156.793 34.923 157.707 35.4842C158.641 36.0261 159.707 36.297 160.907 36.297ZM184.367 39.7222L179.967 31.8267H178.082V39.7222H174.082V19.4608H181.567C183.11 19.4608 184.424 19.7415 185.51 20.3026C186.595 20.8445 187.404 21.5895 187.938 22.5378C188.49 23.4667 188.767 24.5117 188.767 25.6728C188.767 27.0081 188.386 28.2176 187.624 29.3013C186.862 30.3657 185.729 31.101 184.224 31.5074L188.995 39.7222H184.367ZM178.082 28.7788H181.424C182.51 28.7788 183.319 28.5175 183.853 27.995C184.387 27.4531 184.653 26.7082 184.653 25.7599C184.653 24.831 184.387 24.1149 183.853 23.6118C183.319 23.0893 182.51 22.8281 181.424 22.8281H178.082V28.7788ZM196.384 22.741V27.8208H203.098V31.0429H196.384V36.4131H203.955V39.7222H192.384V19.4318H203.955V22.741H196.384Z" fill="#FFB015"/>
</svg>
